<svg width="24" height="24" viewBox="0 0 24 24" fill="none" xmlns="http://www.w3.org/2000/svg">
<path d="M17.625 4.26562H6.375C5.21191 4.26562 4.26562 5.21191 4.26562 6.375V17.625C4.26562 18.7881 5.21191 19.7344 6.375 19.7344H17.625C18.7881 19.7344 19.7344 18.7881 19.7344 17.625V6.375C19.7344 5.21191 18.7881 4.26562 17.625 4.26562ZM12 16.9219C9.28638 16.9219 7.07812 14.7136 7.07812 12C7.07812 9.28638 9.28638 7.07812 12 7.07812C14.7136 7.07812 16.9219 9.28638 16.9219 12C16.9219 14.7136 14.7136 16.9219 12 16.9219ZM16.9219 8.48438C16.1466 8.48438 15.5156 7.85339 15.5156 7.07812C15.5156 6.30286 16.1466 5.67188 16.9219 5.67188C17.6971 5.67188 18.3281 6.30286 18.3281 7.07812C18.3281 7.85339 17.6971 8.48438 16.9219 8.48438Z" fill="#ED8936"/>
<path d="M12 8.48438C10.0616 8.48438 8.48438 10.0616 8.48438 12C8.48438 13.9384 10.0616 15.5156 12 15.5156C13.9384 15.5156 15.5156 13.9384 15.5156 12C15.5156 10.0616 13.9384 8.48438 12 8.48438Z" fill="#ED8936"/>
<path d="M20.4375 0H3.5625C1.62415 0 0 1.62415 0 3.5625V20.4375C0 22.3759 1.62415 24 3.5625 24H20.4375C22.3759 24 24 22.3759 24 20.4375V3.5625C24 1.62415 22.3759 0 20.4375 0ZM21.1406 17.625C21.1406 19.5634 19.5634 21.1406 17.625 21.1406H6.375C4.43665 21.1406 2.85938 19.5634 2.85938 17.625V6.375C2.85938 4.43665 4.43665 2.85938 6.375 2.85938H17.625C19.5634 2.85938 21.1406 4.43665 21.1406 6.375V17.625Z" fill="#ED8936"/>
</svg>
