<svg width="24" height="24" viewBox="0 0 24 24" fill="none" xmlns="http://www.w3.org/2000/svg">
<path d="M22.7746 6.37624C22.5154 5.41232 21.7554 4.65248 20.7916 4.39293C19.0309 3.91118 11.988 3.91118 11.988 3.91118C11.988 3.91118 4.94535 3.91118 3.18465 4.37466C2.23942 4.63394 1.4609 5.41246 1.20162 6.37624C0.738274 8.1368 0.738274 11.788 0.738274 11.788C0.738274 11.788 0.738274 15.4575 1.20162 17.1997C1.46117 18.1635 2.22088 18.9233 3.18479 19.1829C4.96389 19.6647 11.9883 19.6647 11.9883 19.6647C11.9883 19.6647 19.0309 19.6647 20.7916 19.2013C21.7555 18.9418 22.5154 18.182 22.7749 17.2182C23.2381 15.4575 23.2381 11.8065 23.2381 11.8065C23.2381 11.8065 23.2567 8.1368 22.7746 6.37624ZM9.74569 15.161V8.41489L15.6022 11.788L9.74569 15.161Z" fill="#CBD5E0"/>
</svg>
